# xmcd CD database file
#
# Track frame offsets:
#	150
#	9697
#	22910
#	36956
#	50498
#	63936
#	77566
#	90726
#	104884
#	117980
#	127560
#	141926
#	156212
#	169490
#	183499
#	197279
#	212046
#	231515
#	245159
#	258548
#	272254
#
# Disc length: 3795 seconds
#
# Revision: 1
# Processed by: cddbd v1.5.2PL0 Copyright (c) Steve Scherf et al.
# Submitted via: CDex 1.70beta2
#
DISCID=280ed115
DTITLE=Leadbelly - The Ultimate Jazz Archive Set 12
DYEAR=2004
DGENRE=Blues
TTITLE0=I'm Sorry Mama
TTITLE1=Packin' Trunk
TTITLE2=Four Day Worry Blues
TTITLE3=Roberta Pt. 1
TTITLE4=Death Letter Blues Pt. 1
TTITLE5=Fort Worth And Dallas Blues
TTITLE6=Ox Drivin' Blues
TTITLE7=TB Woman Blues
TTITLE8=My Baby Quit Me
TTITLE9=Midnight Special
TTITLE10=Pigmeat
TTITLE11=Black Snake Moan
TTITLE12=See See Rider
TTITLE13=Shorty George
TTITLE14=You Don't My Mind
TTITLE15=The Bourgeois Blues
TTITLE16=John Hardy
TTITLE17=Pick A  Bale Of Cotton
TTITLE18=Grey Goose
TTITLE19=Where Did You Sleep Last Night?
TTITLE20=Pretty Flower In Your Backyard
EXTD=YEAR: 2004
EXTT0=
EXTT1=
EXTT2=
EXTT3=
EXTT4=
EXTT5=
EXTT6=
EXTT7=
EXTT8=
EXTT9=
EXTT10=
EXTT11=
EXTT12=
EXTT13=
EXTT14=
EXTT15=
EXTT16=
EXTT17=
EXTT18=
EXTT19=
EXTT20=
PLAYORDER=
